# Blender v2.90.0 OBJ File: ''
# www.blender.org
o Cone
v -18.859543 -0.909950 -7.068110
v -5.092504 -0.909950 6.698930
v -18.859545 -0.909950 20.465969
v -32.626583 -0.909950 6.698930
v -18.859543 26.624128 6.698930
vt 0.250000 0.490000
vt 0.250000 0.250000
vt 0.490000 0.250000
vt 0.250000 0.010000
vt 0.990000 0.250000
vt 0.510000 0.250000
vt 0.750000 0.490000
vt 0.010000 0.250000
vt 0.750000 0.010000
vn 0.6667 0.3333 -0.6667
vn 0.6667 0.3333 0.6667
vn 0.0000 -1.0000 -0.0000
vn -0.6667 0.3333 0.6667
vn -0.6667 0.3333 -0.6667
s off
f 1/1/1 5/2/1 2/3/1
f 2/3/2 5/2/2 3/4/2
f 2/5/3 4/6/3 1/7/3
f 3/4/4 5/2/4 4/8/4
f 4/8/5 5/2/5 1/1/5
f 2/5/3 3/9/3 4/6/3
